<?xml version="1.0" standalone="no"?>
<!DOCTYPE svg PUBLIC "-//W3C//DTD SVG 20010904//EN"
 "http://www.w3.org/TR/2001/REC-SVG-20010904/DTD/svg10.dtd">
<svg version="1.0" xmlns="http://www.w3.org/2000/svg"
 width="512.000000pt" height="512.000000pt" viewBox="0 0 512.000000 512.000000"
 preserveAspectRatio="xMidYMid meet">

<g transform="translate(0.000000,512.000000) scale(0.100000,-0.100000)"
fill="#000000" stroke="none">
<path d="M3960 4900 c-209 -57 -380 -187 -487 -372 l-47 -79 -1486 2 -1486 2
-57 -26 c-67 -31 -135 -95 -165 -159 -33 -66 -42 -141 -42 -335 l0 -173 1643
0 1642 0 30 -47 c62 -99 227 -238 333 -282 17 -7 34 -21 37 -30 7 -24 -18
-103 -45 -141 -20 -27 -21 -34 -8 -46 34 -35 222 33 332 120 37 29 68 46 86
46 47 0 176 37 241 70 292 147 455 424 436 742 -7 116 -26 190 -78 295 -74
151 -202 278 -353 352 -114 56 -182 72 -326 77 -104 3 -138 1 -200 -16z m294
-232 c9 -12 16 -33 16 -46 0 -18 11 -28 55 -48 68 -29 79 -30 121 -3 21 12 41
18 54 14 26 -8 110 -93 110 -111 0 -8 -10 -32 -21 -52 l-21 -37 28 -60 c25
-51 34 -61 64 -68 50 -12 61 -27 67 -94 7 -74 -3 -94 -58 -113 -38 -14 -44
-20 -62 -73 -20 -55 -20 -59 -4 -86 26 -44 21 -67 -24 -116 -49 -53 -78 -64
-111 -41 -29 21 -46 20 -101 -4 -51 -23 -57 -30 -66 -74 -9 -40 -41 -56 -112
-56 -63 0 -77 10 -94 67 -9 29 -18 38 -70 58 l-59 24 -43 -25 -44 -25 -34 21
c-74 46 -102 104 -70 146 20 27 19 45 -9 107 -22 50 -27 55 -70 66 -53 13 -59
25 -54 121 l3 65 45 16 c40 15 47 22 68 74 l23 57 -21 35 c-11 19 -20 40 -20
47 0 8 21 37 46 65 50 56 73 62 122 34 28 -16 31 -16 88 13 50 25 60 34 67 64
12 49 31 60 108 60 59 0 70 -3 83 -22z m-3505 -457 c46 -25 65 -105 37 -160
-30 -57 -116 -83 -174 -52 -54 29 -77 112 -48 170 34 65 110 82 185 42z m358
14 c70 -20 98 -134 48 -194 -49 -58 -126 -62 -182 -9 -69 64 -39 180 53 208
29 8 38 7 81 -5z m426 -33 c61 -61 40 -158 -41 -194 -38 -17 -51 -19 -83 -9
-52 16 -89 62 -89 112 0 69 34 116 93 129 44 9 86 -4 120 -38z m1837 -44 c0
-29 3 -70 6 -91 l7 -38 -523 3 -522 3 -24 28 c-39 46 -25 115 30 137 11 5 247
9 524 9 l502 1 0 -52z"/>
<path d="M4107 4366 c-101 -36 -164 -132 -154 -236 8 -89 49 -150 131 -192 44
-23 133 -27 181 -8 87 33 145 121 145 220 -1 158 -155 268 -303 216z"/>
<path d="M597 3448 c-23 -14 -45 -38 -57 -64 -20 -40 -20 -57 -18 -522 3 -468
4 -481 24 -508 46 -62 65 -69 197 -72 l122 -3 -32 21 c-17 12 -41 40 -52 64
-20 41 -21 58 -21 511 0 458 0 470 21 513 12 24 36 52 53 63 l31 19 -115 0
c-100 0 -120 -3 -153 -22z"/>
<path d="M4552 2619 c-60 -12 -139 -57 -171 -98 -32 -42 -94 -142 -89 -145 35
-25 508 -306 514 -306 5 0 29 37 53 82 56 104 66 189 32 280 -50 132 -200 215
-339 187z"/>
<path d="M4100 1478 c-195 -319 -356 -583 -358 -587 -2 -6 233 -151 246 -151
6 0 527 843 699 1130 l22 36 -107 64 c-58 36 -115 70 -127 76 -19 11 -42 -25
-375 -568z"/>
<path d="M3470 600 c0 -93 3 -112 16 -117 10 -4 57 14 117 44 l100 50 -110 66
c-61 37 -114 67 -117 67 -3 0 -6 -50 -6 -110z"/>
</g>
</svg>
