<?xml version="1.0" standalone="no"?>
<!DOCTYPE svg PUBLIC "-//W3C//DTD SVG 20010904//EN"
 "http://www.w3.org/TR/2001/REC-SVG-20010904/DTD/svg10.dtd">
<svg version="1.0" xmlns="http://www.w3.org/2000/svg"
 width="200.000000pt" height="200.000000pt" viewBox="0 0 200.000000 200.000000"
 preserveAspectRatio="xMidYMid meet">

<g transform="translate(0.000000,200.000000) scale(0.100000,-0.100000)"
fill="#000000" stroke="none">
<path d="M1610 1634 c-11 -12 -10 -18 3 -32 16 -15 18 -15 34 0 13 14 14 20 3
32 -7 9 -16 16 -20 16 -4 0 -13 -7 -20 -16z"/>
<path d="M1406 1621 c-10 -16 5 -41 24 -41 19 0 34 25 24 41 -3 5 -14 9 -24 9
-10 0 -21 -4 -24 -9z"/>
<path d="M490 1589 c-37 -15 -68 -48 -81 -86 -9 -29 -9 -38 5 -51 20 -20 35
-7 50 40 13 39 52 57 94 42 18 -6 31 -21 38 -42 15 -47 30 -60 50 -40 32 32
-15 113 -79 137 -34 13 -44 13 -77 0z"/>
<path d="M1612 1373 c-7 -3 -24 -23 -38 -44 -30 -48 -55 -50 -85 -6 -47 66
-65 66 -126 -7 -13 -14 -27 -26 -33 -26 -5 0 -24 16 -41 35 -41 44 -75 46
-114 5 -16 -16 -35 -30 -42 -30 -7 0 -13 -4 -13 -10 0 -19 30 -10 63 20 19 17
40 30 47 30 7 0 30 -16 51 -35 22 -19 45 -35 53 -35 8 0 30 18 49 40 19 22 41
40 49 40 8 0 27 -18 42 -40 37 -57 74 -56 113 3 16 23 35 42 43 42 7 0 28 -20
45 -45 40 -57 70 -60 101 -10 13 19 30 43 39 53 9 10 15 21 12 23 -11 11 -34
-10 -56 -51 -30 -56 -51 -57 -80 -5 -18 33 -50 63 -63 59 -2 0 -9 -3 -16 -6z"/>
<path d="M1350 870 c0 -6 63 -10 170 -10 107 0 170 4 170 10 0 6 -63 10 -170
10 -107 0 -170 -4 -170 -10z"/>
<path d="M1295 770 c-4 -7 63 -10 194 -10 127 0 201 4 201 10 0 6 -71 10 -194
10 -119 0 -197 -4 -201 -10z"/>
<path d="M1193 763 c15 -2 39 -2 55 0 15 2 2 4 -28 4 -30 0 -43 -2 -27 -4z"/>
<path d="M1170 670 c0 -6 93 -10 260 -10 167 0 260 4 260 10 0 6 -93 10 -260
10 -167 0 -260 -4 -260 -10z"/>
<path d="M1370 570 c0 -6 60 -10 160 -10 100 0 160 4 160 10 0 6 -60 10 -160
10 -100 0 -160 -4 -160 -10z"/>
<path d="M1450 470 c0 -6 47 -10 120 -10 73 0 120 4 120 10 0 6 -47 10 -120
10 -73 0 -120 -4 -120 -10z"/>
<path d="M1480 370 c0 -6 42 -10 105 -10 63 0 105 4 105 10 0 6 -42 10 -105
10 -63 0 -105 -4 -105 -10z"/>
</g>
</svg>
